<svg width="94" height="160" viewBox="0 0 94 160" fill="none" xmlns="http://www.w3.org/2000/svg">
<g clip-path="url(#clip0_1_185)">
<path d="M74.5308 57.1204C68.2937 57.1204 62.3711 58.2199 56.8677 60.2618C63.7862 54.2932 68.2413 45.6021 68.7131 35.9162C72.5392 39.7906 77.8852 42.1989 83.7555 42.1989C95.4435 42.1989 104.878 32.7225 104.878 21.0994C104.878 9.4764 95.3911 0 83.7555 0C73.9019 0 65.6731 6.70155 63.3145 15.8115C57.1822 6.33505 46.5425 0 34.3828 0C15.4094 0 0 15.3927 0 34.3455C0 53.2984 15.4094 68.6911 34.3828 68.6911C37.6323 68.6911 40.8295 68.2199 43.817 67.3822C31.238 76.7539 23.114 91.7278 23.114 108.586C23.114 115.812 24.634 122.722 27.307 128.953C24.4768 126.911 20.9651 125.654 17.1914 125.654C7.70469 125.654 0 133.351 0 142.827C0 152.304 7.70469 160 17.1914 160C26.6781 160 34.3828 152.304 34.3828 142.827C34.3828 142.042 34.3303 141.257 34.2255 140.471C43.6598 152.304 58.2304 159.948 74.5308 159.948C102.938 159.948 126 136.911 126 108.534C125.948 80.157 102.938 57.1204 74.5308 57.1204Z" fill="#473FF4"/>
</g>
<defs>
<clipPath id="clip0_1_185">
<rect width="126" height="160" fill="white"/>
</clipPath>
</defs>
</svg>
