<svg width="140" height="100" viewBox="0 0 140 100" fill="none" xmlns="http://www.w3.org/2000/svg">
<g id="Frame" clip-path="url(#clip0_1_97)">
<path id="Vector" d="M140 0H0V100H140V0Z" fill="white"/>
<path id="Vector_2" fill-rule="evenodd" clip-rule="evenodd" d="M80.3558 35.2983L69.2007 63.7856H67.3555L78.5099 35.2983H80.3558Z" fill="black"/>
<path id="Vector_3" fill-rule="evenodd" clip-rule="evenodd" d="M4 35.1655H32.5281V64.1476H4V35.1655Z" fill="black"/>
<path id="Vector_4" fill-rule="evenodd" clip-rule="evenodd" d="M126.086 53.6205L122.919 43.5988L119.718 53.6205H126.086ZM126.154 35.7845L135.863 63.5296H129.077L127.407 58.3315H118.394L116.759 63.5296H109.974L119.648 35.7845H126.154ZM105.973 48.4599V63.5288H101.101V60.9492C100.428 61.9458 99.6498 62.6809 98.7688 63.1546C97.8878 63.6282 96.994 63.9531 96.0898 64.1265C95.6479 64.2019 95.213 64.2576 94.7844 64.2957C94.3552 64.333 93.9436 64.3507 93.5482 64.3507L93.2 64.3894C93.1782 64.3633 93.1598 64.3507 93.1479 64.3507H93.0971C92.5861 64.3507 91.7629 64.3013 90.626 64.2019C89.4892 64.1012 88.2938 63.753 87.0413 63.1546C85.3949 62.3574 83.8929 60.9422 82.5354 58.9109C81.178 56.8796 80.4992 53.7693 80.4992 49.5819C80.4992 45.2445 81.5952 41.7296 83.7879 39.0379C85.9792 36.3462 89.4194 35 94.1057 35H94.4525C97.1216 35 99.2086 35.5173 100.718 36.552C102.225 37.5867 103.349 38.7144 104.092 39.9358C104.741 41.0325 105.176 42.0545 105.397 43.0025C105.617 43.9505 105.739 44.5481 105.763 44.7969H99.0472C99.0007 43.7003 98.601 42.7029 97.8469 41.8057C97.0927 40.9085 95.8924 40.4475 94.246 40.4222C92.2513 40.4475 90.7839 40.9952 89.8437 42.0672C88.9035 43.1392 88.2607 44.3113 87.9125 45.5821C87.7106 46.3414 87.5766 47.1172 87.5122 47.9003C87.4599 48.5222 87.431 49.146 87.4255 49.7701C87.4255 52.8854 88.0119 55.1239 89.1833 56.4821C90.3547 57.8396 91.636 58.6311 93.028 58.8552C93.1986 58.9028 93.3732 58.9341 93.5496 58.949C93.7117 58.963 93.8745 58.968 94.0366 58.968C95.8001 58.9186 97.1794 58.3569 98.1774 57.2856C99.1754 56.2136 99.7203 54.9533 99.8126 53.5085H94.6625V48.4606H105.973V48.4599ZM46.3636 48.2357H51.6878C52.6136 48.2182 53.519 47.9605 54.3153 47.4879C55.1153 47.0143 55.5163 46.1044 55.5163 44.7582C55.5163 43.3119 55.116 42.3526 54.3153 41.879C53.5146 41.4054 52.5342 41.1686 51.3748 41.1686H46.3643V48.2357H46.3636ZM39.9258 35.7845H53.497C56.6285 35.7845 58.8325 36.5767 60.1082 38.159C61.3839 39.7413 62.0225 41.5802 62.0225 43.6742C62.0225 45.494 61.6743 46.9206 60.9786 47.9552C60.283 48.9899 59.5176 49.7321 58.6816 50.1803C58.5195 50.2797 58.3631 50.3608 58.2122 50.4228C58.0614 50.4848 57.9162 50.5412 57.7774 50.5905V50.7033C59.1461 51.1022 60.068 51.781 60.5438 52.7409C61.0195 53.7009 61.3036 54.7165 61.3966 55.7886C61.4434 56.3356 61.4665 56.8845 61.4657 57.4336C61.4889 59.1033 61.5404 60.3191 61.6221 61.0803C61.7032 61.8401 61.9069 62.5062 62.2311 63.0806C62.2544 63.1546 62.2889 63.2293 62.3354 63.3047C62.3812 63.3787 62.4284 63.4534 62.4743 63.5288H55.9322C55.5607 62.9551 55.3119 62.2813 55.1836 61.5095C55.0561 60.7371 54.9694 59.4402 54.9229 57.6204C54.9229 57.4963 54.9172 57.3589 54.9059 57.2088C54.8948 57.0718 54.8891 56.9345 54.889 56.7971C54.8218 55.9326 54.5277 55.1011 54.0362 54.3867C53.5372 53.6501 52.4299 53.2829 50.713 53.2829H46.3636V63.5288H39.9258V35.7845Z" fill="black"/>
</g>
<defs>
<clipPath id="clip0_1_97">
<rect width="140" height="100" fill="white"/>
</clipPath>
</defs>
</svg>
