<svg width="140" height="100" viewBox="0 0 140 100" fill="none" xmlns="http://www.w3.org/2000/svg">
<g id="Frame" clip-path="url(#clip0_1_104)">
<path id="Vector" d="M140 0H0V100H140V0Z" fill="white"/>
<path id="Vector_2" d="M14.9821 61.6301H10.2343V49.9821H7V46.1897H10.2342V43.4912C10.2342 40.2934 11.6646 38 16.3996 38C17.401 38 18.9733 38.1987 18.9733 38.1987V41.7201H17.3219C15.6393 41.7201 14.9824 42.2238 14.9824 43.6163V46.1897H18.9103L18.5605 49.9821H14.9822L14.9821 61.6301ZM25.8761 45.8867C25.8069 45.8867 25.7357 45.8891 25.6653 45.8909C21.2628 45.8909 19.2486 49.1499 19.2486 53.7762C19.2486 59.604 21.8613 61.9365 25.6997 61.9365C27.8957 61.9365 29.3385 61.0268 30.2155 59.3292V61.6317H34.7313V46.1913H30.2155V48.5659C29.4994 47.0381 28.0163 45.9048 25.8761 45.8867ZM27.0243 49.5352C28.8733 49.5352 29.9832 50.8045 29.9832 52.9635L29.9874 55.1686C29.9874 56.6238 29.0708 58.3262 27.0243 58.3262C23.8781 58.3262 23.9621 54.9828 23.9621 53.8693C23.9621 50.1236 25.6384 49.5352 27.0243 49.5352ZM36.5551 53.9123C36.5551 52.0361 36.4638 45.8967 44.5913 45.8967C47.8539 45.8967 49.2162 46.9176 49.2162 46.9176L48.1212 50.2598C48.1212 50.2598 46.7607 49.5225 44.9879 49.5225C42.7172 49.5225 41.2683 50.818 41.2683 53.0973L41.2709 54.7316C41.2709 56.9217 42.6688 58.3837 44.9925 58.3837C46.6076 58.3837 48.0962 57.6395 48.0962 57.6395L49.1883 60.9119C49.1883 60.9119 47.9427 61.9392 44.6141 61.9392C36.8755 61.9392 36.5552 56.4311 36.5552 53.9123H36.5551ZM75.6942 45.8909C80.0968 45.8909 82.1427 49.1499 82.1427 53.7762C82.1427 59.604 79.5299 61.9365 75.6915 61.9365C73.4955 61.9365 71.8721 61.027 70.9952 59.3292V61.6317L66.5361 61.63V38.4695L71.2705 38.0631V48.3567C71.9538 46.5558 74.1993 45.8909 75.6943 45.8909H75.6942ZM74.3669 49.5352C72.5179 49.5352 71.2705 50.8045 71.2705 52.9635L71.266 55.1686C71.2633 56.6238 72.1299 58.3262 74.3669 58.3262C77.5131 58.3262 77.4291 54.9828 77.4291 53.8693C77.4291 50.1236 75.7529 49.5352 74.3669 49.5352ZM57.4306 45.9037C52.4372 45.9037 49.8011 48.583 49.8011 53.3444V54.229C49.8011 60.4089 53.5031 62 57.9166 62C62.2065 62 64.1483 60.8191 64.1483 60.8191L63.2624 57.6744C63.2624 57.6744 60.9783 58.6309 58.4842 58.6309C55.8987 58.6309 54.7868 57.9823 54.5017 55.537H64.5268V53.0142C64.5268 47.8492 61.5682 45.9035 57.4305 45.9035L57.4306 45.9037ZM57.5509 49.0526C59.2794 49.0526 60.3994 50.0957 60.3379 52.5148H54.5104C54.6115 49.9687 55.8193 49.0527 57.5509 49.0527V49.0526ZM91.5828 45.8824C86.455 45.8824 83.7554 48.7263 83.7554 53.8227C83.7554 60.8152 88.4089 61.9407 91.5914 61.9407C96.2503 61.9407 99.3499 59.4722 99.3499 53.8862C99.3499 48.0721 95.8648 45.8824 91.5828 45.8824ZM91.5183 49.5478C93.7731 49.5478 94.6665 51.2086 94.6665 53.099V54.7243C94.6665 57.0144 93.4163 58.339 91.5097 58.339C89.7266 58.339 88.4734 57.0999 88.4734 54.7243V53.099C88.4734 50.5654 89.9646 49.5478 91.5183 49.5478ZM108.782 45.8824C103.654 45.8824 100.954 48.7263 100.954 53.8227C100.954 60.8152 105.608 61.9407 108.79 61.9407C113.449 61.9407 116.549 59.4722 116.549 53.8862C116.549 48.0721 113.063 45.8824 108.782 45.8824ZM108.717 49.5478C110.972 49.5478 111.865 51.2086 111.865 53.099V54.7243C111.865 57.0144 110.615 58.339 108.708 58.339C106.925 58.339 105.672 57.0999 105.672 54.7243V53.099C105.672 50.5654 107.163 49.5478 108.717 49.5478ZM118.338 61.6301V38.4695L123.086 38.0632V53.5869L127.796 46.1898H132.811L127.897 53.8511L133 61.6301H127.971L123.086 54.0766V61.6301H118.338Z" fill="black"/>
</g>
<defs>
<clipPath id="clip0_1_104">
<rect width="140" height="100" fill="white"/>
</clipPath>
</defs>
</svg>
