<svg width="140" height="100" viewBox="0 0 140 100" fill="none" xmlns="http://www.w3.org/2000/svg">
<g clip-path="url(#clip0_1_84)">
<path d="M140 0H0V100H140V0Z" fill="white"/>
<path d="M22.6575 47.6992V53.2323C22.6575 53.6762 22.6871 54.0016 22.7759 54.1496C22.8055 54.2384 22.9238 54.2975 23.131 54.3271C23.3085 54.4159 23.6932 54.4751 24.2849 54.5047C24.8471 54.5342 25.646 54.5934 26.6521 54.5934V54.8301H16V54.5934C16.8285 54.5934 17.5386 54.5638 18.0712 54.5047C18.6038 54.4751 18.9885 54.3863 19.166 54.3271C19.3436 54.268 19.4619 54.1792 19.5211 54.1496C19.6099 54.0312 19.6395 53.7353 19.6395 53.2323V40.5682C19.6395 40.1244 19.6099 39.8285 19.5211 39.6805C19.4915 39.5918 19.4027 39.5622 19.2252 39.503C18.7814 39.3255 17.657 39.2367 16.0296 39.2367V39H25.5869C27.5397 39 29.0784 39.4438 30.2027 40.3315C31.2679 41.16 31.8005 42.2844 31.8005 43.6455C31.8005 44.5627 31.3863 45.4504 30.5874 46.2197C29.5518 47.1666 28.1907 47.64 26.4745 47.64H22.6575V47.6992ZM22.6575 47.4625H25.143C26.5041 47.4625 27.4805 47.1074 28.0132 46.3973C28.4866 45.7759 28.6937 44.829 28.6937 43.4975C28.6937 42.0773 28.3978 41.0416 27.7764 40.3315C27.1551 39.5918 26.2378 39.2663 24.9359 39.2663H23.7523C23.3973 39.2663 23.131 39.2959 22.983 39.3551C22.8351 39.3847 22.7167 39.503 22.6871 39.651C22.6871 39.7989 22.6575 40.0948 22.6575 40.5978V47.4625Z" fill="black"/>
<path d="M34.5819 49.8C34.5819 51.5457 34.7595 52.8477 35.2033 53.617C35.6175 54.4159 36.2685 54.8005 37.1266 54.8005C38.0438 54.8005 38.8132 54.5047 39.4937 53.8833C40.3222 53.1436 40.766 52.1375 40.766 50.8652H40.9436C40.9436 52.0784 40.5589 53.114 39.76 53.8833C38.9611 54.6822 37.9255 55.0668 36.6236 55.0668C35.5288 55.0668 34.5227 54.6526 33.6351 53.7945C32.5699 52.7885 32.0373 51.5457 32.0373 49.9479C32.0373 48.2318 32.5699 46.8115 33.6055 45.7463C34.5227 44.829 35.5584 44.326 36.7123 44.326C37.7775 44.326 38.6652 44.6219 39.3458 45.2433C40.3814 46.1605 40.914 47.64 40.914 49.7408H34.6115V49.8H34.5819ZM38.7836 49.5337C38.7836 47.9359 38.6356 46.7523 38.3693 45.8942C38.103 45.0657 37.6296 44.6219 37.0082 44.6219C36.1206 44.6219 35.4696 45.0066 35.1441 45.8055C34.7595 46.6044 34.6115 47.8175 34.6115 49.5041H38.7836V49.5337Z" fill="black"/>
<path d="M46.1512 48.8532V53.7058C46.1512 54.0608 46.1808 54.2384 46.24 54.3567C46.2696 54.3863 46.3584 54.4751 46.4767 54.5047C46.5951 54.5342 46.8318 54.5934 47.1277 54.623C47.4236 54.6526 47.749 54.6526 47.9562 54.6526V54.8893H41.6833V54.6526C42.0384 54.6526 42.423 54.6526 42.7485 54.623C43.1036 54.5934 43.3995 54.5047 43.6953 54.4455C43.8137 54.3567 43.8433 54.1496 43.8433 53.7058V46.2197C43.8433 46.0718 43.8433 45.9238 43.8433 45.7759C43.8433 45.628 43.8137 45.5096 43.7249 45.4208L43.577 45.1841C43.429 45.0658 42.7781 45.0066 41.7129 45.0066V44.7699L46.1512 44.3852V47.5216C46.2696 46.8411 46.4471 46.1901 46.8022 45.6575C47.246 44.8882 47.749 44.5036 48.2521 44.4444C48.7551 44.4148 49.0805 44.3556 49.2581 44.3556C50.2937 44.3556 51.0926 44.6515 51.714 45.3025C52.217 45.8351 52.4833 46.4564 52.4833 47.1666V53.7058C52.4833 54.0608 52.5129 54.2384 52.5721 54.3567C52.6016 54.3863 52.6904 54.4751 52.8088 54.5047C52.9271 54.5342 53.1934 54.5934 53.5485 54.623C53.9036 54.6526 54.229 54.6526 54.5545 54.6526V54.8893H48.2521V54.6526C48.5184 54.6526 48.8142 54.6526 49.1693 54.623C49.5244 54.5934 49.8203 54.5047 50.0866 54.4455C50.2049 54.3567 50.2345 54.1496 50.2345 53.7058V47.4329C50.2345 46.634 50.1458 46.0718 50.057 45.628C49.8203 44.9474 49.4356 44.5923 48.8734 44.5923C48.1041 44.5923 47.5123 45.0362 47.0389 46.0126C46.5655 46.7523 46.2992 47.6992 46.1512 48.8532Z" fill="black"/>
<path d="M61.9222 49.6521V50.806C61.9222 51.1907 61.9222 51.5458 61.9518 51.8712C61.9518 53.0252 61.8334 53.8241 61.5671 54.2384C61.212 54.8006 60.5019 55.126 59.4663 55.126C58.4603 55.126 57.7501 54.8893 57.2767 54.3863C56.8329 53.9129 56.5962 53.2323 56.5962 52.3743V45.3912H54.6433V45.1545C55.9748 44.7995 57.0104 44.0597 57.6909 42.817C58.2236 41.811 58.5194 40.7162 58.5194 39.503H58.9337V44.7107H61.7742V45.4504H58.9337V52.1375C58.9337 53.0252 58.9633 53.5874 59.052 53.8537C59.2 54.4751 59.5847 54.771 60.1173 54.771C60.7682 54.771 61.212 54.4159 61.4192 53.7058C61.5671 53.2027 61.6559 52.2855 61.6559 50.9244V49.7408H61.8926V49.6521H61.9222Z" fill="black"/>
<path d="M68.9052 47.7288V46.2789C68.9052 45.6279 68.7869 45.1841 68.6093 44.9474C68.4318 44.7107 67.9584 44.5923 67.2778 44.5923C66.7156 44.5923 66.2126 44.7107 65.7984 44.9474C65.3841 45.1841 65.1178 45.4504 64.9699 45.8351C65.0586 45.8351 65.1178 45.8055 65.2066 45.8055C65.5025 45.8055 65.7688 45.9238 65.9759 46.1901C66.1534 46.4268 66.2718 46.7227 66.2718 47.0186C66.2718 47.3737 66.1534 47.6696 65.8871 47.9063C65.6504 48.143 65.3545 48.2614 64.9995 48.2614C64.7627 48.2614 64.5852 48.1726 64.4373 48.1134C63.9342 47.8175 63.6975 47.4329 63.6975 46.9299C63.6975 46.6932 63.7271 46.4269 63.8455 46.131C64.0822 45.48 64.6444 45.0362 65.5616 44.7107C66.2126 44.474 66.8932 44.4148 67.5441 44.4148C68.7573 44.4148 69.6745 44.6515 70.2959 45.0953C70.8581 45.5096 71.1244 46.0126 71.1244 46.634V52.0488C71.1244 53.0548 71.154 53.6466 71.2132 53.8833C71.3315 54.4455 71.6274 54.7118 72.1008 54.7118C72.5151 54.7118 72.8406 54.4751 72.9885 54.0608C73.1364 53.617 73.2252 52.9956 73.2252 52.1375C73.2252 51.9008 73.2252 51.6937 73.2252 51.457C73.2252 51.2203 73.2252 51.0132 73.2252 50.7173V50.4805H73.5211V51.5458C73.5211 51.9008 73.5211 52.2263 73.5507 52.5518C73.5507 53.4986 73.4323 54.1496 73.1956 54.4751C72.8997 54.8893 72.2784 55.0964 71.3907 55.0964C70.651 55.0964 70.1775 54.9781 69.8225 54.7118C69.4082 54.4159 69.1419 53.9129 69.0236 53.2323C68.6685 54.0312 68.1359 54.5638 67.4553 54.8301C67.0411 54.9781 66.5085 55.0669 65.7984 55.0669C65.1178 55.0669 64.4964 54.9189 63.9934 54.5638C63.3129 54.12 62.9282 53.469 62.9282 52.5518C62.9282 51.6641 63.2833 50.8948 63.9638 50.303C64.6444 49.7408 65.5025 49.3858 66.4493 49.297C67.4553 49.2082 68.1063 49.0603 68.4318 48.9123C68.7277 48.7644 68.9052 48.3501 68.9052 47.7288ZM68.846 52.1967V48.9123C68.6685 49.1786 68.343 49.3266 67.9584 49.4153C67.5737 49.5041 67.189 49.5337 66.8636 49.5633C66.4197 49.6816 66.0351 49.9479 65.7096 50.3622C65.3545 50.8652 65.2066 51.5458 65.2066 52.4334C65.2066 53.3803 65.2953 54.0312 65.4729 54.3863C65.6504 54.7414 65.9759 54.8893 66.3605 54.8893C66.9819 54.8893 67.5441 54.623 68.0471 54.12C68.5797 53.5578 68.846 52.9364 68.846 52.1967Z" fill="black"/>
<path d="M76.2729 50.7173C75.7403 50.451 75.3556 50.0959 75.0597 49.6816C74.7638 49.2674 74.6159 48.7348 74.6159 48.1134C74.6159 47.0778 75.0597 46.1605 76.0362 45.4504C76.9238 44.7699 77.8707 44.4444 78.9063 44.4444C79.2022 44.4444 79.5573 44.474 79.9123 44.5627C80.2674 44.6515 80.5633 44.7403 80.8592 44.8586V44.2964C80.8592 43.5271 81.0071 43.0241 81.2734 42.7578C81.5397 42.5211 81.954 42.4027 82.4866 42.4027C82.7233 42.4027 82.9304 42.4915 83.1375 42.669C83.3151 42.817 83.4038 43.0537 83.4038 43.32C83.4038 43.8822 83.1375 44.2077 82.6049 44.2077C82.0427 44.2077 81.7764 43.9414 81.7764 43.4088C81.7764 43.2904 81.7764 43.2312 81.806 43.1425C81.8356 43.0537 81.8948 42.9945 81.9244 42.8762C81.5693 42.9058 81.3918 43.0537 81.2734 43.2904C81.1551 43.5271 81.1255 43.8526 81.1255 44.2373C81.1255 44.5923 81.1551 44.8586 81.1551 45.0066C81.806 45.3025 82.309 45.7463 82.6937 46.2197C83.0784 46.7227 83.2263 47.3145 83.2263 47.9655C83.2263 48.9715 82.7825 49.8 81.806 50.4214C80.9775 50.9836 80.0011 51.309 78.9359 51.309C78.1666 51.309 77.486 51.1907 76.8055 50.9244C76.2433 50.9244 75.7699 51.0132 75.4444 51.1907C75.0006 51.4274 74.7638 51.8417 74.7638 52.4038C74.7638 52.6406 74.9414 52.8181 75.3852 52.966C75.7699 53.114 76.5392 53.2027 77.6636 53.2027H79.0838C80.5337 53.2027 81.6581 53.3803 82.3978 53.7649C83.3447 54.2679 83.8181 55.0669 83.8181 56.2208C83.8181 57.434 83.4038 58.3512 82.5162 59.0022C81.6285 59.6532 80.5337 60.0082 79.143 60.0082C77.486 60.0082 76.1545 59.7419 75.1781 59.1797C74.1721 58.6471 73.6986 57.9962 73.6986 57.3156C73.6986 56.8718 73.9649 56.4871 74.4975 56.1616C74.8822 55.9249 75.4444 55.7474 76.2433 55.5107C75.5036 55.2444 74.971 54.9781 74.6455 54.6822C74.2017 54.2679 73.9058 53.7353 73.9058 53.0844C73.9058 52.4038 74.0833 51.8121 74.5271 51.3978C74.9414 50.8948 75.5036 50.7173 76.2729 50.7173ZM79.2022 59.8011C80.297 59.8011 81.1551 59.5644 81.7764 59.1205C82.3978 58.6767 82.6937 58.0849 82.6937 57.434C82.6937 56.6351 82.4274 56.1025 81.9244 55.8362C81.4214 55.5699 80.5041 55.4219 79.1726 55.4219C77.634 55.4219 76.5688 55.5995 76.0066 55.9545C75.5627 56.2504 75.2669 56.7534 75.2669 57.4932C75.2669 58.1737 75.4444 58.7063 75.8291 59.0614C76.5096 59.5348 77.6044 59.8011 79.2022 59.8011ZM80.9775 47.8767C80.9775 46.8411 80.8296 46.0422 80.5633 45.5392C80.2674 44.9178 79.6756 44.6219 78.8767 44.6219C78.137 44.6219 77.6044 44.9178 77.2789 45.5096C76.9238 46.0718 76.7759 46.8707 76.7759 47.8767C76.7759 49.0307 76.9238 49.8592 77.1901 50.3622C77.4564 50.8652 78.0186 51.1019 78.8767 51.1019C79.646 51.1019 80.149 50.8356 80.4745 50.3326C80.8296 49.8 80.9775 49.0011 80.9775 47.8767Z" fill="black"/>
<path d="M87.0433 46.0126C87.0433 45.6575 87.0137 45.48 86.9249 45.3912C86.8066 45.2433 86.6882 45.1249 86.629 45.0953C86.3331 45.0066 85.6822 44.977 84.617 44.977V44.7403L89.3512 44.3556V47.4921C89.44 46.8115 89.6471 46.1901 90.0318 45.5688C90.5644 44.7699 91.2449 44.3556 92.0438 44.3556C92.3397 44.3556 92.6948 44.474 93.0499 44.6515C93.4049 44.829 93.6712 45.0953 93.7896 45.4208C93.9079 45.7167 93.9671 45.983 93.9671 46.2493C93.9671 46.9003 93.7008 47.3441 93.1682 47.5808C93.0498 47.6696 92.8723 47.6992 92.6356 47.6992C92.2805 47.6992 92.0142 47.5808 91.8071 47.3441C91.5704 47.1074 91.452 46.7819 91.452 46.3085C91.452 46.0126 91.5704 45.7463 91.8071 45.4208C92.0438 45.1249 92.3101 45.0066 92.5764 45.0658C92.4581 44.7107 92.1918 44.5332 91.6888 44.5332C91.2449 44.5332 90.7419 44.8882 90.2685 45.5688C89.6471 46.4564 89.3512 47.5808 89.3512 49.0011V53.5874C89.3512 53.9425 89.3808 54.12 89.44 54.2384C89.4696 54.2679 89.5583 54.3567 89.6767 54.3863C90.0318 54.5047 90.7419 54.5638 91.8071 54.5638V54.8005H84.617V54.5638C85.0608 54.5638 85.5342 54.5638 85.9189 54.5343C86.3035 54.5047 86.6586 54.4159 86.9249 54.3567C87.0433 54.2679 87.0729 54.0608 87.0729 53.617V46.0126H87.0433Z" fill="black"/>
<path d="M100.654 47.7288V46.2789C100.654 45.6279 100.536 45.1841 100.358 44.9474C100.181 44.7107 99.7074 44.5923 99.0268 44.5923C98.4646 44.5923 97.9616 44.7107 97.5474 44.9474C97.1331 45.1841 96.8668 45.4504 96.7189 45.8351C96.8077 45.8351 96.8668 45.8055 96.9556 45.8055C97.2515 45.8055 97.5178 45.9238 97.7249 46.1901C97.9025 46.4268 98.0208 46.7227 98.0208 47.0186C98.0208 47.3737 97.9025 47.6696 97.6362 47.9063C97.3994 48.143 97.1035 48.2614 96.7485 48.2614C96.5118 48.2614 96.3342 48.1726 96.1863 48.1134C95.6833 47.8175 95.4466 47.4329 95.4466 46.9299C95.4466 46.6932 95.4762 46.4269 95.5945 46.131C95.8312 45.48 96.3934 45.0362 97.3107 44.7107C97.9616 44.474 98.6422 44.4148 99.2931 44.4148C100.506 44.4148 101.424 44.6515 102.045 45.0953C102.607 45.5096 102.873 46.0126 102.873 46.634V52.0488C102.873 53.0548 102.903 53.6466 102.962 53.8833C103.081 54.4455 103.376 54.7118 103.85 54.7118C104.264 54.7118 104.59 54.4751 104.738 54.0608C104.885 53.617 104.974 52.9956 104.974 52.1375C104.974 51.9008 104.974 51.6937 104.974 51.457C104.974 51.2203 104.974 51.0132 104.974 50.7173V50.4805H105.27V51.5458C105.27 51.9008 105.27 52.2263 105.3 52.5518C105.3 53.4986 105.181 54.1496 104.945 54.4751C104.649 54.8893 104.027 55.0964 103.14 55.0964C102.4 55.0964 101.927 54.9781 101.571 54.7118C101.157 54.4159 100.891 53.9129 100.773 53.2323C100.418 54.0312 99.8849 54.5638 99.2044 54.8301C98.7901 54.9781 98.2575 55.0669 97.5474 55.0669C96.8668 55.0669 96.2455 54.9189 95.7425 54.5638C95.0619 54.12 94.6772 53.469 94.6772 52.5518C94.6772 51.6641 95.0323 50.8948 95.7129 50.303C96.3934 49.7408 97.2515 49.3858 98.1983 49.297C99.2044 49.2082 99.8553 49.0603 100.181 48.9123C100.506 48.7644 100.654 48.3501 100.654 47.7288ZM100.565 52.1967V48.9123C100.388 49.1786 100.062 49.3266 99.6778 49.4153C99.2931 49.5041 98.9085 49.5337 98.583 49.5633C98.1392 49.6816 97.7545 49.9479 97.429 50.3622C97.074 50.8652 96.926 51.5458 96.926 52.4334C96.926 53.3803 97.0148 54.0312 97.1923 54.3863C97.3698 54.7414 97.6953 54.8893 98.08 54.8893C98.7014 54.8893 99.2636 54.623 99.7666 54.12C100.358 53.5578 100.565 52.9364 100.565 52.1967Z" fill="black"/>
<path d="M116.129 47.3441C116.248 46.5748 116.425 46.0126 116.692 45.5392C117.106 44.8586 117.638 44.4444 118.378 44.3556C118.496 44.3556 118.615 44.3556 118.763 44.326C118.911 44.326 118.999 44.2964 119.059 44.2964C120.065 44.2964 120.893 44.5923 121.455 45.2433C121.958 45.7759 122.225 46.3973 122.225 47.1074V53.6466C122.225 53.9425 122.254 54.1792 122.313 54.268C122.343 54.3567 122.432 54.3863 122.55 54.4455C122.669 54.4751 122.905 54.5343 123.201 54.5638C123.497 54.5934 123.763 54.5934 124 54.5934V54.8301H118.201V54.5934C118.585 54.5934 118.881 54.5934 119.118 54.5638C119.355 54.5343 119.562 54.4455 119.798 54.3271C119.917 54.2384 119.946 54.0312 119.946 53.6466V47.4033C119.946 46.634 119.858 46.0422 119.769 45.5984C119.532 44.9178 119.147 44.5627 118.615 44.5627C118.053 44.5627 117.55 44.829 117.165 45.3617C116.751 45.983 116.396 47.0778 116.159 48.6756V53.617C116.159 53.9721 116.188 54.1496 116.248 54.268C116.277 54.2975 116.366 54.3567 116.484 54.4159C116.603 54.4455 116.78 54.5047 117.106 54.5343C117.402 54.5638 117.668 54.623 117.934 54.623V54.8597H112.076V54.623C112.697 54.623 113.17 54.5934 113.525 54.4455L113.703 54.3567C113.821 54.268 113.851 54.0608 113.851 53.617V47.3737C113.851 46.5748 113.762 46.0126 113.673 45.5688C113.437 44.8882 113.052 44.5332 112.49 44.5332C111.75 44.5332 111.188 44.977 110.774 45.9534C110.507 46.6044 110.271 47.5512 110.123 48.794V53.6466C110.123 54.0017 110.152 54.1792 110.212 54.2975C110.241 54.3271 110.33 54.4159 110.448 54.4455C110.567 54.4751 110.803 54.5343 111.099 54.5638C111.395 54.5934 111.661 54.5934 111.898 54.5934V54.8301H105.625V54.5934C105.98 54.5934 106.306 54.5934 106.661 54.5638C107.016 54.5343 107.312 54.4455 107.608 54.3863C107.726 54.2975 107.756 54.0904 107.756 53.6466V46.1901C107.756 46.0422 107.756 45.8943 107.756 45.7463C107.756 45.5984 107.726 45.48 107.637 45.3912C107.519 45.2433 107.401 45.1249 107.341 45.0954C107.105 45.0066 106.542 44.977 105.655 44.977V44.7995L110.093 44.3852V47.5217C110.212 46.7227 110.389 46.1014 110.626 45.6575C111.01 44.8882 111.573 44.474 112.312 44.3852C112.46 44.3852 112.608 44.3556 112.727 44.3556C112.845 44.3556 112.963 44.3556 112.993 44.3556C114.058 44.3556 114.827 44.6515 115.39 45.2433C115.863 45.7759 116.129 46.486 116.129 47.3441Z" fill="black"/>
</g>
<defs>
<clipPath id="clip0_1_84">
<rect width="140" height="100" fill="white"/>
</clipPath>
</defs>
</svg>
