<svg width="125" height="157" viewBox="0 0 125 157" fill="none" xmlns="http://www.w3.org/2000/svg">
<g clip-path="url(#clip0_1_761)">
<path d="M142.242 106.516H121.548V85.8441L106.791 71.1016H85.9879V51.0822L86.0968 51.191H106.954L121.712 36.4484V15.5586L106.954 0.816008H86.0968L71.3389 15.5586V35.6868L71.2299 35.578H50.3729V14.7426L35.615 0H14.7579L0 14.7426V35.578L14.7579 50.3205H35.5605V71.1559L50.3184 85.8985H71.1755V106.679H50.3184L35.5605 121.422V142.257L50.3184 157H71.2299L85.9879 142.257V121.476H106.627V142.094L121.385 156.837H142.242L157 142.094V121.259L142.242 106.516Z" fill="#FF4D00"/>
</g>
<defs>
<clipPath id="clip0_1_761">
<rect width="157" height="157" fill="white"/>
</clipPath>
</defs>
</svg>
