<svg width="140" height="100" viewBox="0 0 140 100" fill="none" xmlns="http://www.w3.org/2000/svg">
<g clip-path="url(#clip0_1_18)">
<path d="M140 0H0V100H140V0Z" fill="white"/>
<path d="M25 73.8657H27.0037V69.8758C27.0037 69.1652 27.0037 68.2886 27.3666 67.7751C27.7276 67.2168 28.3761 67.0353 28.7381 67.0353C30.4262 67.0353 30.4262 69.0311 30.4262 69.7244V73.8657H32.4289V69.3322C32.4289 68.6809 32.4289 67.277 31.6613 66.3557C30.9691 65.5083 29.8677 65.189 29.1456 65.189C27.8786 65.189 27.1856 65.8868 26.8545 66.2043V65.4764H25V73.8657Z" fill="black"/>
<path fill-rule="evenodd" clip-rule="evenodd" d="M41.5394 70.5715C41.5967 70.3006 41.6595 69.9521 41.6595 69.5599C41.6595 67.4454 39.986 65.144 37.3338 65.144C34.7563 65.144 32.9336 67.3232 32.9336 69.6949C32.9336 72.1423 34.8627 74.1391 37.3493 74.1391C39.3084 74.1391 40.9046 72.7352 41.3875 71.2228H39.2765C38.9009 71.9179 38.2388 72.2946 37.3493 72.2946C35.9177 72.2946 35.1337 71.1161 35.0428 70.5715H41.5394ZM34.9827 68.9542C35.3593 67.3971 36.6108 66.9894 37.3493 66.9894C38.3443 66.9894 39.3829 67.6087 39.6094 68.9542H34.9827Z" fill="black"/>
<path d="M44.2338 73.8662H45.4671L47.0505 68.4259H47.0796L48.6486 73.8662H49.8837L52.9424 65.4768H50.8032L49.2643 70.6015H49.2352L47.8773 65.4768H46.282L44.9105 70.6015H44.8804L43.3588 65.4768H41.2188L44.2338 73.8662Z" fill="black"/>
<path fill-rule="evenodd" clip-rule="evenodd" d="M56.8164 73.8659H58.6536V72.8534C59.1493 73.4135 59.8605 74.1387 61.4731 74.1387C64.5309 74.1387 65.6314 71.3127 65.6314 69.6334C65.6314 67.414 63.9743 65.1892 61.4276 65.1892C60.4927 65.1892 59.5122 65.5386 58.8192 66.2346V62.6816H56.8164V73.8659ZM58.6982 69.5595C58.6982 68.3354 59.6477 67.0355 61.1848 67.0355C62.4518 67.0355 63.6278 68.0161 63.6278 69.6507C63.6278 71.2808 62.5272 72.2951 61.2157 72.2951C60.0406 72.2951 58.6982 71.4185 58.6982 69.5595Z" fill="black"/>
<path fill-rule="evenodd" clip-rule="evenodd" d="M74.9924 65.477H73.1525V66.5379H73.1225C73.0615 66.4157 72.0511 65.1888 70.3503 65.1888C68.0301 65.1888 66.1602 67.0487 66.1602 69.6202C66.1602 72.4151 68.0747 74.1392 70.2302 74.1392C71.2834 74.1392 72.5204 73.5782 73.1525 72.8265V73.8664H74.9924V65.477ZM73.0943 69.6512C73.0943 71.2074 72.0374 72.2947 70.6504 72.2947C69.2198 72.2947 68.1638 71.1308 68.1638 69.7105C68.1638 68.4562 69.0078 67.036 70.6504 67.036C71.8419 67.036 73.0943 67.9117 73.0943 69.6512Z" fill="black"/>
<path d="M78.0622 62.6824H76.0586V73.8667H78.0622V62.6824Z" fill="black"/>
<path fill-rule="evenodd" clip-rule="evenodd" d="M87.4954 65.477H85.6573V66.5379H85.6264C85.5654 66.4157 84.555 65.1888 82.8542 65.1888C80.5313 65.1888 78.6641 67.0487 78.6641 69.6202C78.6641 72.4151 80.5786 74.1392 82.7332 74.1392C83.7873 74.1392 85.0225 73.5782 85.6573 72.8265V73.8664H87.4954V65.477ZM85.5964 69.6512C85.5964 71.2074 84.5422 72.2947 83.1552 72.2947C81.7228 72.2947 80.6686 71.1308 80.6686 69.7105C80.6686 68.4562 81.5127 67.036 83.1552 67.036C84.3458 67.036 85.5964 67.9117 85.5964 69.6512Z" fill="black"/>
<path d="M88.5664 73.8657H90.5692V69.8758C90.5692 69.1652 90.5692 68.2886 90.932 67.7751C91.2931 67.2168 91.9434 67.0353 92.3036 67.0353C93.9907 67.0353 93.9907 69.0311 93.9907 69.7244V73.8657H95.9962V69.3322C95.9962 68.6809 95.9962 67.277 95.2259 66.3557C94.5328 65.5083 93.4341 65.189 92.7101 65.189C91.4432 65.189 90.752 65.8868 90.4191 66.2043V65.4764H88.5664V73.8657Z" fill="black"/>
<path d="M103.108 71.1312C102.58 71.9777 101.919 72.2951 101.256 72.2951C99.7467 72.2951 98.738 71.1011 98.738 69.6653C98.738 67.9422 99.944 67.0355 101.164 67.0355C102.4 67.0355 102.868 67.8364 103.108 68.2587H105.37C104.511 65.6736 102.218 65.1892 101.164 65.1892C98.8581 65.1892 96.7344 67.0665 96.7344 69.6334C96.7344 72.4156 99.0373 74.1387 101.18 74.1387C103.139 74.1387 104.69 73.0048 105.37 71.1312H103.108Z" fill="black"/>
<path fill-rule="evenodd" clip-rule="evenodd" d="M114.289 70.5706C114.349 70.2997 114.409 69.9513 114.409 69.559C114.409 67.4446 112.737 65.1431 110.085 65.1431C107.507 65.1431 105.684 67.3223 105.684 69.694C105.684 72.1414 107.613 74.1382 110.099 74.1382C112.057 74.1382 113.656 72.7343 114.138 71.2219H112.028C111.651 71.917 110.99 72.2937 110.099 72.2937C108.667 72.2937 107.884 71.1152 107.795 70.5706H114.289ZM107.734 68.9533C108.111 67.3962 109.361 66.9885 110.099 66.9885C111.095 66.9885 112.134 67.6079 112.359 68.9533H107.734Z" fill="black"/>
<path fill-rule="evenodd" clip-rule="evenodd" d="M59.112 46.0595L56.4335 50.6989L41.6075 49.8624L43.0919 47.2782L59.112 46.0595ZM69.8297 31.2767L71.1731 36.3967L50.136 35.0102L51.6195 32.4269L69.8297 31.2767ZM55.8833 25.0008L68.1971 25.0099L69.1267 28.5109L54.4017 27.5841L55.8833 25.0008ZM54.8009 53.5841L52.6627 57.2712L37.3438 57.2876L38.8272 54.7052L54.8009 53.5841ZM81.6961 43.6368L77.9881 50.0832H81.5197C83.1559 50.0832 86.0882 49.264 86.9904 46.927C87.8262 44.7551 86.2901 43.634 85.2178 43.634L81.6961 43.6368ZM85.2323 37.4704L88.3128 37.4512C90.3629 37.4403 92.5011 36.4998 93.2833 34.5915C94.0046 32.821 93.035 31.3131 91.7499 31.3186L88.7703 31.315L85.2323 37.4704ZM71.2886 36.3967L74.3991 30.9848L84.9267 30.307L85.2942 29.6502L75.556 28.967L77.8334 25.0008L95.8927 24.9999C101.446 24.9999 105.554 26.9912 103.957 32.8474C103.477 34.6216 101.22 39.0877 94.5994 40.9586C96.0046 41.1264 99.5044 42.6817 98.9014 46.7136C97.83 53.8633 88.6002 57.2666 83.466 57.2684L62.1453 57.2785L61.0948 53.1417L72.2618 52.3518L72.641 51.6968L60.529 50.957L59.2239 46.0531L76.4583 45.0443L76.833 44.3948L45.8704 42.4354L47.3538 39.853L80.682 37.6829L81.0595 37.0325L71.2886 36.3967Z" fill="black"/>
</g>
<defs>
<clipPath id="clip0_1_18">
<rect width="140" height="100" fill="white"/>
</clipPath>
</defs>
</svg>
