<svg width="140" height="100" viewBox="0 0 140 100" fill="none" xmlns="http://www.w3.org/2000/svg">
<g clip-path="url(#clip0_1_43)">
<path d="M140 0H0V100H140V0Z" fill="white"/>
<path d="M119.001 32.8471H102.523L103.538 30.001H119.001V32.8471Z" fill="#020202"/>
<path d="M75.0714 30.001H90.3716L91.3771 32.8547H75.0802C75.0802 32.8547 75.0664 30.001 75.0714 30.001Z" fill="#020202"/>
<path d="M62.917 30C65.4386 30.2443 67.6307 31.1448 69.4986 32.8524H41.7656V30H62.917Z" fill="#020202"/>
<path d="M39.2698 30.0005H20.0039V32.8466H39.2698V30.0005Z" fill="#020202"/>
<path d="M119 38.1883H100.633C100.633 38.1883 101.638 35.3535 101.628 35.3535H119V38.1883Z" fill="#020202"/>
<path d="M93.2653 38.1928H75.0703V35.3555H92.2685L93.2653 38.1928Z" fill="#020202"/>
<path d="M71.6649 35.3535C72.0306 36.2892 72.4629 37.0889 72.4629 38.1871H41.7773V35.3535H71.6649Z" fill="#020202"/>
<path d="M39.2699 35.3555H20.0039V38.1877H39.2699V35.3555Z" fill="#020202"/>
<path d="M98.7539 43.542L99.762 40.6958L113.553 40.7008V43.5356L98.7539 43.542Z" fill="#020202"/>
<path d="M94.1469 40.6958L95.1525 43.542H80.4922V40.6958H94.1469Z" fill="#020202"/>
<path d="M72.7062 40.6958C72.7191 41.659 72.582 42.6184 72.3002 43.5394H63.8984V40.6958H72.7062Z" fill="#020202"/>
<path d="M33.6522 40.7095H25.3711V43.5417H33.6522V40.7095Z" fill="#020202"/>
<path d="M55.6109 40.6958H47.3438V43.542H55.6109V40.6958Z" fill="#020202"/>
<path d="M88.635 46.6166C88.635 46.6166 88.635 48.7713 88.635 48.7751H80.4922V45.9429H96.011L96.9752 48.5874C96.9752 48.5874 97.9041 45.9429 97.9053 45.9429H113.546V48.7751H105.442V46.6178L104.688 48.7751H89.3841L88.635 46.6166Z" fill="#020202"/>
<path d="M47.3438 45.9429H71.0757C70.4599 47.0163 69.6633 47.975 68.7213 48.7764H47.3438V45.9429Z" fill="#020202"/>
<path d="M33.6522 45.9414H25.3711V48.7749H33.6522V45.9414Z" fill="#020202"/>
<path d="M113.549 51.2822H105.445V54.1145H113.549V51.2822Z" fill="#020202"/>
<path d="M88.635 51.2827H80.4922V54.1176H88.6375C88.6375 54.1176 88.6475 51.2827 88.635 51.2827Z" fill="#020202"/>
<path d="M103.804 51.2833C103.767 51.2833 102.854 54.1144 102.816 54.1156H91.2734C91.2646 54.1156 90.259 51.2745 90.2578 51.2783L103.804 51.2833Z" fill="#020202"/>
<path d="M47.3463 51.2822H68.6825C69.6559 52.1068 70.5118 53.0609 71.2266 54.1183H47.3438L47.3463 51.2822Z" fill="#020202"/>
<path d="M33.6566 54.1182V51.2847H25.3906V54.117L33.6566 54.1182Z" fill="#020202"/>
<path d="M113.548 56.6226H105.445V59.4561H113.548V56.6226Z" fill="#020202"/>
<path d="M88.6362 56.6226H80.4922V59.4549H88.6362V56.6226Z" fill="#020202"/>
<path d="M100.919 59.4712C100.919 59.4585 101.918 56.6226 101.935 56.625H92.1213C92.1049 56.625 93.1269 59.4585 93.1269 59.4585C93.1269 59.4585 100.918 59.4825 100.919 59.4712Z" fill="#020202"/>
<path d="M47.3438 59.4561V56.6226H55.7329C55.7329 56.6226 55.7404 59.4573 55.7329 59.4573C55.7253 59.4573 47.3438 59.4535 47.3438 59.4561Z" fill="#020202"/>
<path d="M72.4006 56.6226C72.8066 57.4764 72.8469 58.4927 72.9273 59.4687H64.0391V56.6226H72.4006Z" fill="#020202"/>
<path d="M33.6566 56.6226H25.3906V59.4549H33.6566V56.6226Z" fill="#020202"/>
<path d="M119.001 61.8545H105.445V64.688H119.001V61.8545Z" fill="#020202"/>
<path d="M88.6383 61.8545H75.0703V64.688H88.6383V61.8545Z" fill="#020202"/>
<path d="M99.0959 64.6893H94.9579L93.9648 61.8545H100.054L99.0959 64.6893Z" fill="#020202"/>
<path d="M20.0039 61.8555V64.6878H39.256C39.2635 64.6878 39.2472 61.8568 39.256 61.8568L20.0039 61.8555Z" fill="#020202"/>
<path d="M72.5733 61.8555C72.3708 62.7899 72.1848 63.9297 71.5035 64.6891H41.7656V61.8555H72.5733Z" fill="#020202"/>
<path d="M97.2225 70.0349H96.8416L95.875 67.1963H98.2156L97.2225 70.0349Z" fill="#020202"/>
<path d="M119.001 67.1963H105.445V70.0424H119.001V67.1963Z" fill="#020202"/>
<path d="M41.7656 70.0364V67.2017H69.6609C67.7929 68.9912 65.2311 69.9999 62.4708 70.0402H41.7694" fill="#020202"/>
<path d="M88.6383 67.1963H75.0703V70.0424H88.6383V67.1963Z" fill="#020202"/>
<path d="M39.2544 67.2152C39.2544 67.2152 39.2455 70.0425 39.2544 70.0425C39.2632 70.0425 20.0073 70.0539 20.0022 70.0425C19.9972 70.0312 20.0022 67.2026 20.0022 67.2026C20.0022 67.2026 39.2455 67.2152 39.2544 67.2152Z" fill="#020202"/>
</g>
<defs>
<clipPath id="clip0_1_43">
<rect width="140" height="100" fill="white"/>
</clipPath>
</defs>
</svg>
