<svg width="40" height="40" viewBox="0 0 40 40" fill="none" xmlns="http://www.w3.org/2000/svg">
<g clip-path="url(#clip0_1_391)">
<path d="M30.7467 39.9412C28.2284 39.9412 25.8857 38.9412 24.1288 37.1765L18.7408 31.7647L18.5651 32.4706C18.0966 34.5294 16.9839 36.4118 15.344 37.8235C14.5241 38.4706 13.5871 39 12.5915 39.4118C11.5373 39.7647 10.4832 40 9.37042 40C6.85212 40 4.50948 39 2.75253 37.2353C0.995578 35.4706 0 33.0588 0 30.5882V16.5294V9.11765C0 8.94118 0 8.82354 0 8.64707C0 8.64707 0 8.64705 0 8.58822C0 8.5294 0 8.41177 0 8.35295V8.2941V8.23529C0 8.23529 0 8.23527 0 8.17645V8.11764V8.05883V7.99999C0 7.94116 -1.42977e-05 7.82354 0.0585508 7.76471C0.0585508 7.70589 0.0585508 7.70588 0.0585508 7.64706C0.0585508 7.58824 0.0585365 7.52942 0.117102 7.4706V7.41175V7.35294V7.2941V7.23529V7.17648V7.11763V7.05882C0.117102 7 0.117159 6.94117 0.175724 6.94117C0.175724 6.94117 0.175724 6.94118 0.175724 6.88236C0.175724 6.88236 0.175724 6.88234 0.175724 6.82352C0.234289 6.70587 0.23426 6.58824 0.292826 6.47059C0.292826 6.41177 0.351376 6.35293 0.351376 6.35293C0.409941 6.17646 0.468535 5.99998 0.5271 5.82351C0.5271 5.82351 0.5271 5.82352 0.5271 5.7647C0.585665 5.64705 0.585637 5.58823 0.644202 5.47058V5.41177C0.644202 5.41177 0.644188 5.35293 0.702753 5.35293C0.702753 5.2941 0.761375 5.23529 0.761375 5.17646C0.761375 5.17646 0.761361 5.11765 0.819926 5.11765C0.819926 5.11765 0.819912 5.05881 0.878477 5.05881C0.878477 4.99999 0.937027 4.94115 0.937027 4.94115C0.937027 4.94115 0.937013 4.88235 0.995578 4.88235C0.995578 4.88235 0.995635 4.82354 1.0542 4.82354C1.11277 4.70589 1.17129 4.64707 1.22985 4.52942C1.63981 3.88236 2.10834 3.23528 2.63543 2.70587C2.98682 2.35293 3.39676 1.99999 3.86528 1.64705C4.5095 1.17646 5.21227 0.823508 5.97361 0.52939C6.09074 0.470567 6.20793 0.470595 6.32506 0.411772H6.38361C6.50074 0.352948 6.61786 0.352941 6.73499 0.294118C6.73499 0.294118 6.73497 0.294118 6.79354 0.294118C6.91067 0.235294 7.02778 0.235273 7.14491 0.235273C7.8477 0.058802 8.55053 0 9.25332 0H23.1332H23.5431H30.6296C35.7833 0 40 4.23529 40 9.41177C40 11.9412 39.0043 14.2941 37.2474 16.0588C35.959 17.3529 34.3191 18.2353 32.5622 18.5882L31.8594 18.7647L37.2474 24.1765C40.8784 27.8235 40.8784 33.8235 37.2474 37.5294C35.6076 38.9412 33.265 39.9412 30.7467 39.9412ZM28.1113 33.1176C28.814 33.8235 29.7511 34.2353 30.7467 34.2353C31.7423 34.2353 32.6793 33.8235 33.3821 33.1176C34.0849 32.4118 34.4949 31.4706 34.4949 30.4706C34.4949 29.4706 34.0849 28.5294 33.3821 27.8235L24.0117 18.4118H18.7994V22.9412V23.7059L26.8814 31.8235L28.1113 33.1176ZM5.68079 30.5294C5.68079 31.5294 6.09076 32.4706 6.79354 33.1764C7.49632 33.8823 8.43336 34.2941 9.42897 34.2941C10.4246 34.2941 11.3616 33.8823 12.0644 33.1764C12.7672 32.4706 13.1771 31.5294 13.1771 30.5294V9.0588C13.1771 8.11763 12.8257 7.17647 12.1229 6.47059L12.0644 6.41174C11.3616 5.70586 10.4246 5.29412 9.42897 5.29412C9.31184 5.29412 9.19472 5.29412 9.07759 5.29412H9.01904C8.96048 5.29412 8.84335 5.2941 8.72622 5.35293C8.60909 5.35293 8.55052 5.41177 8.43339 5.41177C8.31626 5.41177 8.25768 5.47058 8.19912 5.47058C7.67203 5.64705 7.20349 5.99998 6.79354 6.41174C6.73497 6.47057 6.67645 6.5294 6.61789 6.64705C6.2665 7.11764 6.03219 7.64706 5.91506 8.23529C5.91506 8.29412 5.91508 8.41174 5.85651 8.47057C5.85651 8.47057 5.85651 8.47059 5.85651 8.52941C5.85651 8.52941 5.85651 8.58824 5.85651 8.64707C5.85651 8.70589 5.85651 8.82352 5.85651 8.88234V8.94118C5.85651 9.00001 5.85651 8.99998 5.85651 9.0588L5.68079 30.5294ZM30.7467 12.6471C31.7423 12.6471 32.6793 12.3529 33.3821 11.6471C34.0849 10.9412 34.4949 9.99999 34.4949 8.99999C34.4949 7.99999 34.0849 7.05882 33.3821 6.35293C32.6793 5.64705 31.7423 5.23527 30.7467 5.23527H18.0381L18.2137 5.7647C18.5651 6.7647 18.7408 7.88236 18.7408 8.94118V12.6471H29.5168H30.7467Z" fill="#34E0A1"/>
</g>
<defs>
<clipPath id="clip0_1_391">
<rect width="40" height="40" fill="white"/>
</clipPath>
</defs>
</svg>
