<svg width="140" height="100" viewBox="0 0 140 100" fill="none" xmlns="http://www.w3.org/2000/svg">
<g clip-path="url(#clip0_1_33)">
<path d="M140 0H0V100H140V0Z" fill="white"/>
<path d="M63.2026 50.7229C63.2026 55.6447 59.3644 59.2715 54.6541 59.2715C49.9437 59.2715 46.1055 55.6447 46.1055 50.7229C46.1055 45.7664 49.9437 42.1743 54.6541 42.1743C59.3644 42.1743 63.2026 45.7664 63.2026 50.7229ZM59.4605 50.7229C59.4605 47.6473 57.2359 45.5429 54.6541 45.5429C52.0722 45.5429 49.8476 47.6473 49.8476 50.7229C49.8476 53.7677 52.0722 55.9029 54.6541 55.9029C57.2359 55.9029 59.4605 53.7639 59.4605 50.7229Z" fill="black"/>
<path d="M81.5503 50.7229C81.5503 55.6447 77.7121 59.2715 73.0017 59.2715C68.2913 59.2715 64.4531 55.6447 64.4531 50.7229C64.4531 45.7703 68.2913 42.1743 73.0017 42.1743C77.7121 42.1743 81.5503 45.7664 81.5503 50.7229ZM77.8081 50.7229C77.8081 47.6473 75.5836 45.5429 73.0017 45.5429C70.4198 45.5429 68.1953 47.6473 68.1953 50.7229C68.1953 53.7677 70.4198 55.9029 73.0017 55.9029C75.5836 55.9029 77.8081 53.7639 77.8081 50.7229Z" fill="black"/>
<path d="M99.0639 42.6876V57.9406C99.0639 64.215 95.3692 66.7776 91.0012 66.7776C86.8895 66.7776 84.4149 64.0234 83.4816 61.7711L86.7251 60.4189C87.3026 61.8017 88.7178 63.4335 90.9974 63.4335C93.7933 63.4335 95.526 61.706 95.526 58.4539V57.232H95.3959C94.5621 58.2624 92.9557 59.1625 90.9285 59.1625C86.6868 59.1625 82.8008 55.4623 82.8008 50.701C82.8008 45.9052 86.6868 42.1743 90.9285 42.1743C92.9519 42.1743 94.5583 43.0745 95.3959 44.0742H95.526V42.6914H99.0639V42.6876ZM95.7899 50.701C95.7899 47.7094 93.7972 45.5222 91.2613 45.5222C88.691 45.5222 86.5376 47.7094 86.5376 50.701C86.5376 53.662 88.691 55.8185 91.2613 55.8185C93.7972 55.8185 95.7899 53.662 95.7899 50.701Z" fill="black"/>
<path d="M104.901 33.834V58.8542H101.148V33.834H104.901Z" fill="black"/>
<path d="M118.99 53.5403L121.841 55.4828C120.921 56.8742 118.703 59.2715 114.871 59.2715C110.119 59.2715 106.57 55.5175 106.57 50.7229C106.57 45.6392 110.149 42.1743 114.46 42.1743C118.801 42.1743 120.925 45.7048 121.619 47.6126L121.999 48.5838L110.817 53.3168C111.673 55.0319 113.004 55.9068 114.871 55.9068C116.742 55.9068 118.039 54.9664 118.99 53.5403ZM110.214 50.4647L117.689 47.2927C117.278 46.2251 116.041 45.4812 114.585 45.4812C112.718 45.4812 110.119 47.1655 110.214 50.4647Z" fill="black"/>
<path d="M32.4568 48.6148V45.0257H44.6732C44.7926 45.6512 44.8543 46.3912 44.8543 47.1921C44.8543 49.8849 44.1107 53.2145 41.7144 55.5869C39.3837 57.9897 36.4057 59.2713 32.4607 59.2713C25.1486 59.2713 19 53.3747 19 46.1356C19 38.8965 25.1486 33 32.4607 33C36.5058 33 39.3875 34.5714 41.5526 36.6195L38.9946 39.1521C37.442 37.7104 35.3385 36.589 32.4568 36.589C27.1173 36.589 22.9411 40.8493 22.9411 46.1356C22.9411 51.4219 27.1173 55.6822 32.4568 55.6822C35.9203 55.6822 37.8928 54.3053 39.1564 53.0543C40.1811 52.0398 40.8553 50.5905 41.1212 48.611L32.4568 48.6148Z" fill="black"/>
</g>
<defs>
<clipPath id="clip0_1_33">
<rect width="140" height="100" fill="white"/>
</clipPath>
</defs>
</svg>
