<svg width="120" height="26" viewBox="0 0 120 26" fill="none" xmlns="http://www.w3.org/2000/svg">
<g id="Frame" clip-path="url(#clip0_1_247)">
<path id="Vector" d="M0 0.422712H4.55581L4.97852 2.818C5.87089 0.939335 7.79649 0 9.81606 0C10.8024 0 11.7887 0.234851 12.4932 0.516651L11.4129 6.05872C10.7084 5.63602 9.81609 5.35422 8.73586 5.35422C6.90416 5.35422 5.40117 6.62231 5.40117 9.39335V18.2701H0V0.422712Z" fill="#C4C4C4"/>
<path id="Vector_2" d="M14.5596 11.6945V0.422472H19.9607V10.6612C19.9607 12.7278 21.135 13.808 22.8258 13.808C24.5635 13.808 26.0664 12.446 26.0664 9.44009V0.375488H31.4676V18.1759H26.9588L26.3483 15.8276C25.5029 17.2366 23.3424 18.5986 20.7123 18.5986C17.2367 18.6456 14.5596 16.3912 14.5596 11.6945Z" fill="#C4C4C4"/>
<path id="Vector_3" d="M34.5205 0.422712H39.0294L39.6399 2.77105C40.4853 1.36205 42.5988 0 45.2289 0C48.7045 0 51.3346 2.25441 51.3346 6.90411V18.2231H45.9334V8.03133C45.9334 5.91783 44.8532 4.79061 43.0685 4.79061C41.4247 4.79061 39.9217 6.15266 39.9217 9.2055V18.2231H34.5205V0.422712Z" fill="#C4C4C4"/>
<path id="Vector_4" d="M52.2739 0.422852H57.769L61.0097 12.4933L63.8747 4.55592L62.4657 0.422852H67.9139L71.4364 12.4933L74.5831 0.422852H80.1252L74.3013 18.2232H68.6653L66.223 11.1313L63.7338 18.2232H58.1448L52.2739 0.422852Z" fill="#C4C4C4"/>
<path id="Vector_5" d="M80.2192 9.34639C80.2192 3.19375 84.6341 0 88.6733 0C91.1625 0 92.9472 0.986296 93.8396 2.01956L94.3562 0.422712H99.3817V18.2231H94.591L93.8396 16.4853C93.0881 17.3777 91.4913 18.6458 88.4384 18.6458C84.0705 18.6458 80.2192 15.0294 80.2192 9.34639ZM94.0744 9.34639C94.0744 6.48142 92.2427 4.69667 89.8944 4.69667C87.4991 4.69667 85.7143 6.52839 85.7143 9.34639C85.7143 12.2114 87.546 13.9961 89.8944 13.9961C92.1957 13.9961 94.0744 12.2114 94.0744 9.34639Z" fill="#C4C4C4"/>
<path id="Vector_6" d="M105.065 25.3622L108.071 17.2839L100.979 0.422852H106.802L110.748 11.4131L114.317 0.422852H120L110.654 25.3622H105.065Z" fill="#C4C4C4"/>
</g>
<defs>
<clipPath id="clip0_1_247">
<rect width="120" height="26" fill="white"/>
</clipPath>
</defs>
</svg>
